{"title":"Lemon Tree aka Etz Limon.2008.SWESUB.DVDRip.XviD.-Zen_Bud","uid":5563757,"size":740767016,"categoryP":"video","categoryS":"movies","magnet":"?xt=urn:btih:0e602c3038c496b280b872a6da04af3ba48a95b0&amp;dn=Lemon+Tree+aka+Etz+Limon.2008.SWESUB.DVDRip.XviD.-Zen_Bud&amp;tr=udp%3A%2F%2Ftracker.openbittorrent.com%3A80&amp;tr=udp%3A%2F%2Fopen.demonii.com%3A1337&amp;tr=udp%3A%2F%2Ftracker.coppersurfer.tk%3A6969&amp;tr=udp%3A%2F%2Fexodus.desync.com%3A6969","seeders":2,"leechers":0,"uploader":"Zen_Bud","files":-1,"time":1273920424,"description":"***************Audio: Hebrew/Arabic with Swedish subtitles**************\n\n\n\nGeneral\nComplete name                    : Lemon Tree.avi\nFormat                           : AVI\nFile size                        : 706 MiB\nDuration                         : 1h 41mn\nOverall bit rate                 : 970 Kbps\n\nVideo\nID                               : 0\nFormat                           : MPEG-4 Visual\nCodec ID/Hint                    : XviD\nDuration                         : 1h 41mn\nBit rate                         : 829 Kbps\nWidth                            : 716 pixels\nHeight                           : 552 pixels\nDisplay aspect ratio             : 16:9\nResolution                       : 8 bits\nColorimetry                      : 4:2:0\nScan type                        : Progressive\nBits/(Pixel*Frame)               : 0.084\nStream size                      : 604 MiB (85%)\nWriting library                  : XviD 1.1.2 (UTC 2006-11-01)\n\nAudio\nID                               : 1\nFormat                           : MPEG Audio\nMode                             : Joint stereo\nCodec ID/Hint                    : MP3\nDuration                         : 1h 41mn\nBit rate                         : 128 Kbps\nChannel(s)                       : 2 channels\nSampling rate                    : 48.0 KHz\nStream size                      : 93.2 MiB (13%)\n\n\n","torrent":{"xt":"urn:btih:0e602c3038c496b280b872a6da04af3ba48a95b0","amp;dn":"Lemon+Tree+aka+Etz+Limon.2008.SWESUB.DVDRip.XviD.-Zen_Bud","amp;tr":["udp%3A%2F%2Ftracker.openbittorrent.com%3A80","udp%3A%2F%2Fopen.demonii.com%3A1337","udp%3A%2F%2Ftracker.coppersurfer.tk%3A6969","udp%3A%2F%2Fexodus.desync.com%3A6969"],"infoHash":"0e602c3038c496b280b872a6da04af3ba48a95b0","infoHashBuffer":{"type":"Buffer","data":[14,96,44,48,56,196,150,178,128,184,114,166,218,4,175,59,164,138,149,176]},"announce":[],"urlList":[]}}